<svg xmlns="http://www.w3.org/2000/svg" version="1.1" xmlns:xlink="http://www.w3.org/1999/xlink" xmlns:svgjs="http://svgjs.com/svgjs" width="1920" height="1080" preserveAspectRatio="none" viewBox="0 0 1920 1080"><g mask="url(&quot;#SvgjsMask8755&quot;)" fill="none"><rect width="1920" height="1080" x="0" y="0" fill="rgba(232, 243, 214, 1)"></rect><use xlink:href="#SvgjsG8769" transform="translate(0, 0)" fill="rgba(252, 249, 190, 1)"></use><use xlink:href="#SvgjsG8769" transform="translate(0, 540)" fill="rgba(255, 220, 169, 1)"></use><use xlink:href="#SvgjsG8769" transform="translate(540, 0)" fill="rgba(252, 249, 190, 1)"></use><use xlink:href="#SvgjsG8769" transform="translate(540, 540)" fill="rgba(255, 220, 169, 1)"></use><use xlink:href="#SvgjsG8769" transform="translate(1080, 0)" fill="rgba(252, 249, 190, 1)"></use><use xlink:href="#SvgjsG8769" transform="translate(1080, 540)" fill="rgba(250, 171, 120, 1)"></use><use xlink:href="#SvgjsG8769" transform="translate(1620, 0)" fill="rgba(250, 171, 120, 1)"></use><use xlink:href="#SvgjsG8769" transform="translate(1620, 540)" fill="rgba(250, 171, 120, 1)"></use></g><defs><mask id="SvgjsMask8755"><rect width="1920" height="1080" fill="#ffffff"></rect></mask><g id="SvgjsG8760"><path d="M15.964 4.774l-1.312 10.327H10.223L8.916 4.774h5.408L15.395 1.04 16 1.21l-1.024 3.562 0.988 0.002zM8.29 10.788s0.166-1.502-2.131-1.502H2.5c-2.293 0-2.131 1.502-2.132 1.502h7.922zM0.368 13.595s-0.162 1.506 2.132 1.506h3.659c2.297 0 2.131-1.506 2.131-1.506H0.369z m7.578-0.727a0.68 0.68 0 0 0 0.68-0.68c0-0.372-0.304-0.676-0.68-0.676H0.68C0.306 11.512 0 11.816 0 12.188a0.682 0.682 0 0 0 0.68 0.68h7.266z"></path></g><g id="SvgjsG8766"><path d="M7.741 5.269c-0.003 0.523-0.481 1.084-1.101 1.084v8.856c0 1.261-1.714 1.261-1.716 0V6.354c-0.602 0-1.127-0.465-1.126-1.159V0.315c-0.001-0.423 0.612-0.44 0.616 0.017v3.606h0.51V0.299c0-0.389 0.59-0.414 0.591 0.016v3.623h0.526V0.307C6.044-0.103 6.618-0.12 6.616 0.323v3.615h0.526V0.307c-0.002-0.406 0.597-0.423 0.599 0.016v4.946zM12.309 1.449v13.76c0.002 1.229-1.715 1.211-1.717 0V9.746h-0.912V1.449c-0.001-1.932 2.631-1.932 2.629 0z"></path></g><g id="SvgjsG8759"><path d="M9.772 3.249c0.894 0 1.621-0.726 1.625-1.624C11.392 0.73 10.666 0.003 9.771 0c-0.898 0.003-1.624 0.73-1.624 1.625 0 0.898 0.726 1.624 1.625 1.624zM6.045 1.946c0.919-0.474 2.204 0.395 2.215 1.347v3.094l1.469 1.626c0.675 0.756-0.393 1.797-1.139 1.042L6.931 7.221c-0.107-0.102-0.185-0.223-0.183-0.504v-1.477l-2.902 1.563v7.863c0.001 1.776-2.405 1.776-2.406 0.017V5.36c0.002-0.519 0.207-1.025 0.72-1.32L6.045 1.946z"></path><path d="M12.066 9.922h2.554V5.274l-5.143-0.009c-0.658 0-0.906 0.745-0.496 1.217l3.084 3.44z m-1.478-4.865a0.205 0.205 0 0 0 0.2-0.2 0.205 0.205 0 0 0-0.2-0.2c-0.111 0.002-0.2 0.09-0.2 0.2s0.089 0.199 0.2 0.2z m0.53 0.034a0.203 0.203 0 0 0 0.2-0.199 0.203 0.203 0 0 0-0.2-0.2 0.203 0.203 0 0 0-0.2 0.2c0.002 0.109 0.09 0.198 0.2 0.199z m0.035-0.59c0.109 0.003 0.197-0.086 0.2-0.192-0.003-0.114-0.091-0.202-0.2-0.2-0.11-0.002-0.199 0.086-0.2 0.2a0.195 0.195 0 0 0 0.2 0.192z m-0.53-0.035c0.109 0.001 0.198-0.088 0.2-0.2-0.002-0.107-0.091-0.196-0.2-0.2-0.11 0.004-0.198 0.093-0.199 0.2 0.001 0.112 0.09 0.201 0.199 0.2z m0.174-0.539c0.113-0.004 0.206-0.098 0.209-0.208-0.002-0.118-0.096-0.211-0.209-0.208-0.117-0.003-0.21 0.09-0.209 0.209-0.002 0.112 0.092 0.205 0.209 0.209z m0.643 0.105c0.116-0.004 0.209-0.098 0.209-0.209 0.001-0.118-0.093-0.211-0.209-0.208-0.114-0.003-0.206 0.09-0.208 0.208 0.002 0.112 0.094 0.205 0.21 0.209z m-0.226-0.54c0.118-0.002 0.216-0.1 0.218-0.216-0.002-0.125-0.099-0.223-0.217-0.227-0.123 0.003-0.221 0.101-0.216 0.226-0.004 0.117 0.094 0.214 0.217 0.216zM11.961 3.84c0.119-0.002 0.217-0.1 0.217-0.217a0.224 0.224 0 0 0-0.217-0.226c-0.123 0.003-0.221 0.101-0.217 0.226-0.003 0.117 0.094 0.215 0.218 0.217z m-0.243-0.538c0.124-0.003 0.222-0.1 0.226-0.218a0.232 0.232 0 0 0-0.226-0.226c-0.117 0.003-0.216 0.101-0.217 0.226a0.224 0.224 0 0 0 0.218 0.218z m0.591 0a0.244 0.244 0 0 0 0.243-0.244c0-0.133-0.108-0.241-0.243-0.243a0.252 0.252 0 0 0-0.243 0.243c0.004 0.134 0.112 0.242 0.243 0.244z m0.191 0.747c0.131-0.002 0.239-0.11 0.243-0.243-0.004-0.133-0.112-0.241-0.243-0.244a0.245 0.245 0 0 0-0.243 0.244 0.245 0.245 0 0 0 0.243 0.243z m0.365-0.461c0.142-0.003 0.255-0.116 0.252-0.252 0.003-0.142-0.109-0.256-0.251-0.259-0.138 0.003-0.251 0.117-0.251 0.261 0.001 0.136 0.114 0.25 0.251 0.253z m0.486 0.487a0.27 0.27 0 0 0 0.27-0.261c-0.003-0.151-0.123-0.27-0.269-0.269-0.147-0.001-0.266 0.118-0.269 0.269 0.003 0.143 0.122 0.262 0.27 0.261zM12.891 4.544a0.268 0.268 0 0 0 0.27-0.261c-0.003-0.15-0.122-0.27-0.27-0.269a0.259 0.259 0 0 0-0.26 0.269c-0.005 0.144 0.114 0.262 0.26 0.261z"></path></g><g id="SvgjsG8768"><path d="M3.898 0s0.232 4.58 4.246 4.192S8.597 0.364 3.898 0m4.203 14.894a2.324 2.324 0 0 1-1.902 0.977c-0.64 0-1.267-0.3-1.689-0.721-0.864-0.943-1.985-3.051-1.986-3.052C1.897 10.822 1.56 9.837 1.56 8.839c0-2.126 1.72-3.968 3.848-3.968 1.05 0 1.996 0.42 2.692 1.099a3.835 3.835 0 0 1 2.69-1.099c2.129 0 3.848 1.842 3.849 3.967 0 0.997-0.334 1.983-0.964 3.259 0 0-1.12 2.108-1.984 3.051-0.423 0.422-1.049 0.722-1.689 0.722a2.321 2.321 0 0 1-1.899-0.977" fill-rule="evenodd"></path></g><g id="SvgjsG8757"><path d="M12.872 14.056H9.025v-5.485L15.968 0H0l7.07 8.528v5.528h-3.773c-1.304 0.003-1.304 1.944 0 1.944H12.872c1.296 0 1.285-1.942 0-1.944zM8.021 4.809c-0.001-0.682 0.553-1.236 1.237-1.237 0.684 0 1.239 0.555 1.236 1.237 0.003 0.687-0.552 1.241-1.236 1.236-0.684 0.004-1.238-0.55-1.237-1.236z"></path></g><g id="SvgjsG8758"><path d="M8.688 6.116c0.878 0.204 1.538 0.96 1.538 1.857v6.893c0 0.213-0.183 0.384-0.402 0.384H5.872a0.395 0.395 0 0 1-0.4-0.384V7.973c0-0.9 0.654-1.657 1.54-1.857V3.031h1.676V6.116zM7.01 1.671h1.676v0.665h-1.676V1.671z"></path></g><g id="SvgjsG8763"><path d="M7.45 12.652S6.4 11.121 3.725 11.121C1.274 11.121 0 11.833 0 11.833V1.937s1.274-0.712 3.725-0.729C6.4 1.19 7.45 2.756 7.45 2.756V12.652z m1.087 0s1.05-1.531 3.725-1.531c2.451 0 3.725 0.712 3.725 0.713V1.937s-1.274-0.712-3.725-0.729c-2.675-0.017-3.725 1.548-3.725 1.548v9.896z"></path><path d="M8.012 15.733S6.4 13.411 3.725 13.411c-2.451 0-3.725 0.712-3.725 0.712v-1.186s1.274-0.712 3.725-0.729c2.675-0.018 4.287 2.34 4.287 2.34V15.733z m0 0s1.612-2.323 4.287-2.323c2.451 0 3.725 0.712 3.725 0.712v-1.185s-1.274-0.712-3.725-0.729c-2.675-0.019-4.287 2.339-4.287 2.339v1.185z"></path></g><g id="SvgjsG8762"><path d="M11.406 2.678H4.629C0.382 2.678 0.682 5.459 0.682 5.459h14.67S15.66 2.678 11.406 2.678zM4.629 13.447h6.777c4.254 0 3.947-2.789 3.946-2.789H0.682s-0.3 2.789 3.947 2.789z m10.087-4.135a1.259 1.259 0 0 0 1.259-1.259c0-0.69-0.562-1.252-1.259-1.252H1.259C0.566 6.801 0 7.363 0 8.052a1.262 1.262 0 0 0 1.259 1.26h13.457z" fill-rule="evenodd"></path></g><g id="SvgjsG8761"><path d="M5.739 1.894a0.289 0.289 0 0 0 0.191 0.073c0.162 0 0.293-0.132 0.293-0.292 0-0.051-0.017-0.099-0.036-0.144l-0.328-0.768a0.468 0.468 0 0 0-0.417-0.258 0.47 0.47 0 0 0-0.343 0.796L5.739 1.896z m1.082 0.144c0.028 0.064 0.045 0.138 0.045 0.208 0 0.303-0.245 0.548-0.545 0.548-0.109 0-0.212-0.037-0.298-0.093l-1.311-1.097a0.973 0.973 0 0 1-0.228-0.627c0-0.531 0.428-0.967 0.957-0.967 0.393 0 0.735 0.247 0.874 0.593L6.821 2.038zM11.023 3.005a0.292 0.292 0 0 1 0.287 0.29v0.45c0 0.16-0.131 0.29-0.287 0.29l-0.267-0.011c0.32 0.202 0.554 0.554 0.554 0.967v9.84c0 0.504-0.401 0.911-0.897 0.912H5.251A0.906 0.906 0 0 1 4.348 14.831l0.005-9.84c0-0.413 0.228-0.765 0.551-0.967l-0.267 0.011a0.285 0.285 0 0 1-0.284-0.29V3.295c0-0.158 0.125-0.29 0.284-0.29H11.023z" fill-rule="evenodd"></path></g><g id="SvgjsG8756"><path d="M10.902 1.099a0.294 0.294 0 0 1-0.25-0.29c0-0.111 0.063-0.203 0.151-0.257-0.091-0.051-0.15-0.148-0.151-0.256 0-0.164 0.13-0.296 0.293-0.296h1.453c0.163 0 0.292 0.131 0.292 0.296 0 0.113-0.063 0.209-0.158 0.256 0.091 0.05 0.158 0.146 0.158 0.257a0.295 0.295 0 0 1-0.25 0.29l1.764 4.821c0.11 0.31 0.167 0.66 0.166 1.008v8.549a0.58 0.58 0 0 1-0.581 0.58H9.549a0.579 0.579 0 0 1-0.577-0.581V6.93c0-0.349 0.057-0.698 0.163-1.011l1.767-4.82zM2.794 5.955a0.211 0.211 0 0 0 0.139 0.053c0.118 0 0.214-0.097 0.214-0.213 0-0.038-0.013-0.072-0.026-0.106l-0.24-0.56a0.342 0.342 0 0 0-0.304-0.189 0.343 0.343 0 0 0-0.25 0.582L2.794 5.956z m0.789 0.104c0.02 0.047 0.033 0.101 0.034 0.153 0 0.221-0.179 0.4-0.399 0.4-0.079 0-0.155-0.027-0.217-0.068l-0.958-0.801a0.71 0.71 0 0 1-0.166-0.458c0-0.388 0.312-0.706 0.699-0.706 0.287 0 0.537 0.18 0.638 0.433l0.37 1.047z m3.068 0.707a0.213 0.213 0 0 1 0.21 0.211v0.329c0 0.117-0.096 0.212-0.21 0.211l-0.194-0.008c0.234 0.148 0.404 0.405 0.404 0.707v7.185c0 0.368-0.293 0.665-0.655 0.665H2.438A0.662 0.662 0 0 1 1.778 15.401l0.004-7.185c0-0.302 0.167-0.559 0.402-0.707l-0.195 0.008a0.208 0.208 0 0 1-0.207-0.211v-0.329c0-0.115 0.091-0.212 0.207-0.211H6.651z"></path></g><g id="SvgjsG8767"><path d="M7.47 6.623c0 0.659-0.601 1.365-1.379 1.365v6.827c0 1.58-2.152 1.58-2.152 0V7.986c-0.759 0-1.419-0.584-1.419-1.459V0.403c0-0.533 0.771-0.553 0.771 0.02v4.528h0.645V0.382c0-0.49 0.742-0.522 0.742 0.021v4.548h0.666V0.388c0-0.512 0.72-0.532 0.72 0.02v4.543h0.656V0.388c0-0.507 0.752-0.527 0.752 0.02V6.621z m5.744-4.795v12.982c0 1.545-2.158 1.522-2.157 0v-4.915h-1.149V1.829c0-2.427 3.307-2.427 3.306 0z"></path></g><g id="SvgjsG8765"><path d="M11.852 2.71c-0.295 0.29-0.694 0.403-1.135 0.403-0.561 0-1.071-0.231-1.365-0.669-0.291 0.446-0.803 0.669-1.371 0.669-0.56 0-1.066-0.236-1.358-0.674-0.291 0.452-0.803 0.674-1.378 0.674-0.414 0-0.795-0.094-1.081-0.352l-0.217-1.574c0.297 0.397 0.769 0.654 1.298 0.654 0.574 0 1.087-0.285 1.378-0.736 0.293 0.437 0.798 0.736 1.359 0.736 0.568 0 1.081-0.285 1.372-0.731 0.293 0.437 0.803 0.731 1.365 0.731 0.572 0 1.078-0.298 1.367-0.749l-0.231 1.617z"></path><path d="M12.267 16L14.746 0 13.077 0.016 10.822 14.313H5.204L2.949 0.016 1.28 0l2.479 16H12.267z"></path></g><g id="SvgjsG8764"><path d="M12.049 4.244l-1.49 11.735H5.527L4.041 4.244h6.146L11.403 0 12.091 0.193l-1.164 4.048 1.122 0.003z" fill-rule="evenodd"></path></g><g id="SvgjsG8769"><use xlink:href="#SvgjsG8756" transform="translate(0, 0) scale(2)" fill="rgba(250, 171, 120, 1)"></use><use xlink:href="#SvgjsG8757" transform="translate(0, 54) scale(2)" fill="rgba(252, 249, 190, 1)"></use><use xlink:href="#SvgjsG8758" transform="translate(0, 108) scale(2)" fill="rgba(252, 249, 190, 1)"></use><use xlink:href="#SvgjsG8759" transform="translate(0, 162) scale(2)" fill="rgba(252, 249, 190, 1)"></use><use xlink:href="#SvgjsG8760" transform="translate(0, 216) scale(2)" fill="rgba(255, 220, 169, 1)"></use><use xlink:href="#SvgjsG8760" transform="translate(0, 270) scale(2)" fill="rgba(252, 249, 190, 1)"></use><use xlink:href="#SvgjsG8761" transform="translate(0, 324) scale(2)" fill="rgba(250, 171, 120, 1)"></use><use xlink:href="#SvgjsG8762" transform="translate(0, 378) scale(2)" fill="rgba(250, 171, 120, 1)"></use><use xlink:href="#SvgjsG8761" transform="translate(0, 432) scale(2)" fill="rgba(252, 249, 190, 1)"></use><use xlink:href="#SvgjsG8763" transform="translate(0, 486) scale(2)" fill="rgba(252, 249, 190, 1)"></use><use xlink:href="#SvgjsG8758" transform="translate(54, 0) scale(2)" fill="rgba(255, 220, 169, 1)"></use><use xlink:href="#SvgjsG8760" transform="translate(54, 54) scale(2)" fill="rgba(255, 220, 169, 1)"></use><use xlink:href="#SvgjsG8764" transform="translate(54, 108) scale(2)" fill="rgba(255, 220, 169, 1)"></use><use xlink:href="#SvgjsG8758" transform="translate(54, 162) scale(2)" fill="rgba(252, 249, 190, 1)"></use><use xlink:href="#SvgjsG8765" transform="translate(54, 216) scale(2)" fill="rgba(250, 171, 120, 1)"></use><use xlink:href="#SvgjsG8759" transform="translate(54, 270) scale(2)" fill="rgba(250, 171, 120, 1)"></use><use xlink:href="#SvgjsG8764" transform="translate(54, 324) scale(2)" fill="rgba(255, 220, 169, 1)"></use><use xlink:href="#SvgjsG8765" transform="translate(54, 378) scale(2)" fill="rgba(250, 171, 120, 1)"></use><use xlink:href="#SvgjsG8760" transform="translate(54, 432) scale(2)" fill="rgba(250, 171, 120, 1)"></use><use xlink:href="#SvgjsG8766" transform="translate(54, 486) scale(2)" fill="rgba(252, 249, 190, 1)"></use><use xlink:href="#SvgjsG8767" transform="translate(108, 0) scale(2)" fill="rgba(252, 249, 190, 1)"></use><use xlink:href="#SvgjsG8767" transform="translate(108, 54) scale(2)" fill="rgba(252, 249, 190, 1)"></use><use xlink:href="#SvgjsG8757" transform="translate(108, 108) scale(2)" fill="rgba(252, 249, 190, 1)"></use><use xlink:href="#SvgjsG8767" transform="translate(108, 162) scale(2)" fill="rgba(255, 220, 169, 1)"></use><use xlink:href="#SvgjsG8757" transform="translate(108, 216) scale(2)" fill="rgba(252, 249, 190, 1)"></use><use xlink:href="#SvgjsG8759" transform="translate(108, 270) scale(2)" fill="rgba(255, 220, 169, 1)"></use><use xlink:href="#SvgjsG8759" transform="translate(108, 324) scale(2)" fill="rgba(250, 171, 120, 1)"></use><use xlink:href="#SvgjsG8768" transform="translate(108, 378) scale(2)" fill="rgba(252, 249, 190, 1)"></use><use xlink:href="#SvgjsG8759" transform="translate(108, 432) scale(2)" fill="rgba(250, 171, 120, 1)"></use><use xlink:href="#SvgjsG8759" transform="translate(108, 486) scale(2)" fill="rgba(252, 249, 190, 1)"></use><use xlink:href="#SvgjsG8764" transform="translate(162, 0) scale(2)" fill="rgba(252, 249, 190, 1)"></use><use xlink:href="#SvgjsG8758" transform="translate(162, 54) scale(2)" fill="rgba(252, 249, 190, 1)"></use><use xlink:href="#SvgjsG8757" transform="translate(162, 108) scale(2)" fill="rgba(252, 249, 190, 1)"></use><use xlink:href="#SvgjsG8762" transform="translate(162, 162) scale(2)" fill="rgba(250, 171, 120, 1)"></use><use xlink:href="#SvgjsG8761" transform="translate(162, 216) scale(2)" fill="rgba(255, 220, 169, 1)"></use><use xlink:href="#SvgjsG8764" transform="translate(162, 270) scale(2)" fill="rgba(255, 220, 169, 1)"></use><use xlink:href="#SvgjsG8767" transform="translate(162, 324) scale(2)" fill="rgba(250, 171, 120, 1)"></use><use xlink:href="#SvgjsG8767" transform="translate(162, 378) scale(2)" fill="rgba(255, 220, 169, 1)"></use><use xlink:href="#SvgjsG8767" transform="translate(162, 432) scale(2)" fill="rgba(252, 249, 190, 1)"></use><use xlink:href="#SvgjsG8765" transform="translate(162, 486) scale(2)" fill="rgba(255, 220, 169, 1)"></use><use xlink:href="#SvgjsG8759" transform="translate(216, 0) scale(2)" fill="rgba(252, 249, 190, 1)"></use><use xlink:href="#SvgjsG8757" transform="translate(216, 54) scale(2)" fill="rgba(255, 220, 169, 1)"></use><use xlink:href="#SvgjsG8763" transform="translate(216, 108) scale(2)" fill="rgba(252, 249, 190, 1)"></use><use xlink:href="#SvgjsG8764" transform="translate(216, 162) scale(2)" fill="rgba(255, 220, 169, 1)"></use><use xlink:href="#SvgjsG8765" transform="translate(216, 216) scale(2)" fill="rgba(255, 220, 169, 1)"></use><use xlink:href="#SvgjsG8764" transform="translate(216, 270) scale(2)" fill="rgba(250, 171, 120, 1)"></use><use xlink:href="#SvgjsG8768" transform="translate(216, 324) scale(2)" fill="rgba(255, 220, 169, 1)"></use><use xlink:href="#SvgjsG8765" transform="translate(216, 378) scale(2)" fill="rgba(250, 171, 120, 1)"></use><use xlink:href="#SvgjsG8768" transform="translate(216, 432) scale(2)" fill="rgba(250, 171, 120, 1)"></use><use xlink:href="#SvgjsG8765" transform="translate(216, 486) scale(2)" fill="rgba(250, 171, 120, 1)"></use><use xlink:href="#SvgjsG8766" transform="translate(270, 0) scale(2)" fill="rgba(255, 220, 169, 1)"></use><use xlink:href="#SvgjsG8756" transform="translate(270, 54) scale(2)" fill="rgba(252, 249, 190, 1)"></use><use xlink:href="#SvgjsG8758" transform="translate(270, 108) scale(2)" fill="rgba(250, 171, 120, 1)"></use><use xlink:href="#SvgjsG8758" transform="translate(270, 162) scale(2)" fill="rgba(250, 171, 120, 1)"></use><use xlink:href="#SvgjsG8765" transform="translate(270, 216) scale(2)" fill="rgba(252, 249, 190, 1)"></use><use xlink:href="#SvgjsG8760" transform="translate(270, 270) scale(2)" fill="rgba(255, 220, 169, 1)"></use><use xlink:href="#SvgjsG8764" transform="translate(270, 324) scale(2)" fill="rgba(252, 249, 190, 1)"></use><use xlink:href="#SvgjsG8766" transform="translate(270, 378) scale(2)" fill="rgba(255, 220, 169, 1)"></use><use xlink:href="#SvgjsG8756" transform="translate(270, 432) scale(2)" fill="rgba(255, 220, 169, 1)"></use><use xlink:href="#SvgjsG8764" transform="translate(270, 486) scale(2)" fill="rgba(250, 171, 120, 1)"></use><use xlink:href="#SvgjsG8765" transform="translate(324, 0) scale(2)" fill="rgba(250, 171, 120, 1)"></use><use xlink:href="#SvgjsG8759" transform="translate(324, 54) scale(2)" fill="rgba(255, 220, 169, 1)"></use><use xlink:href="#SvgjsG8760" transform="translate(324, 108) scale(2)" fill="rgba(255, 220, 169, 1)"></use><use xlink:href="#SvgjsG8766" transform="translate(324, 162) scale(2)" fill="rgba(250, 171, 120, 1)"></use><use xlink:href="#SvgjsG8756" transform="translate(324, 216) scale(2)" fill="rgba(250, 171, 120, 1)"></use><use xlink:href="#SvgjsG8764" transform="translate(324, 270) scale(2)" fill="rgba(252, 249, 190, 1)"></use><use xlink:href="#SvgjsG8765" transform="translate(324, 324) scale(2)" fill="rgba(252, 249, 190, 1)"></use><use xlink:href="#SvgjsG8768" transform="translate(324, 378) scale(2)" fill="rgba(252, 249, 190, 1)"></use><use xlink:href="#SvgjsG8758" transform="translate(324, 432) scale(2)" fill="rgba(252, 249, 190, 1)"></use><use xlink:href="#SvgjsG8764" transform="translate(324, 486) scale(2)" fill="rgba(252, 249, 190, 1)"></use><use xlink:href="#SvgjsG8761" transform="translate(378, 0) scale(2)" fill="rgba(255, 220, 169, 1)"></use><use xlink:href="#SvgjsG8762" transform="translate(378, 54) scale(2)" fill="rgba(250, 171, 120, 1)"></use><use xlink:href="#SvgjsG8762" transform="translate(378, 108) scale(2)" fill="rgba(255, 220, 169, 1)"></use><use xlink:href="#SvgjsG8763" transform="translate(378, 162) scale(2)" fill="rgba(250, 171, 120, 1)"></use><use xlink:href="#SvgjsG8761" transform="translate(378, 216) scale(2)" fill="rgba(252, 249, 190, 1)"></use><use xlink:href="#SvgjsG8756" transform="translate(378, 270) scale(2)" fill="rgba(252, 249, 190, 1)"></use><use xlink:href="#SvgjsG8762" transform="translate(378, 324) scale(2)" fill="rgba(255, 220, 169, 1)"></use><use xlink:href="#SvgjsG8757" transform="translate(378, 378) scale(2)" fill="rgba(252, 249, 190, 1)"></use><use xlink:href="#SvgjsG8768" transform="translate(378, 432) scale(2)" fill="rgba(252, 249, 190, 1)"></use><use xlink:href="#SvgjsG8763" transform="translate(378, 486) scale(2)" fill="rgba(250, 171, 120, 1)"></use><use xlink:href="#SvgjsG8758" transform="translate(432, 0) scale(2)" fill="rgba(252, 249, 190, 1)"></use><use xlink:href="#SvgjsG8760" transform="translate(432, 54) scale(2)" fill="rgba(252, 249, 190, 1)"></use><use xlink:href="#SvgjsG8764" transform="translate(432, 108) scale(2)" fill="rgba(252, 249, 190, 1)"></use><use xlink:href="#SvgjsG8768" transform="translate(432, 162) scale(2)" fill="rgba(252, 249, 190, 1)"></use><use xlink:href="#SvgjsG8762" transform="translate(432, 216) scale(2)" fill="rgba(255, 220, 169, 1)"></use><use xlink:href="#SvgjsG8758" transform="translate(432, 270) scale(2)" fill="rgba(250, 171, 120, 1)"></use><use xlink:href="#SvgjsG8761" transform="translate(432, 324) scale(2)" fill="rgba(252, 249, 190, 1)"></use><use xlink:href="#SvgjsG8766" transform="translate(432, 378) scale(2)" fill="rgba(255, 220, 169, 1)"></use><use xlink:href="#SvgjsG8760" transform="translate(432, 432) scale(2)" fill="rgba(252, 249, 190, 1)"></use><use xlink:href="#SvgjsG8767" transform="translate(432, 486) scale(2)" fill="rgba(255, 220, 169, 1)"></use><use xlink:href="#SvgjsG8768" transform="translate(486, 0) scale(2)" fill="rgba(252, 249, 190, 1)"></use><use xlink:href="#SvgjsG8757" transform="translate(486, 54) scale(2)" fill="rgba(252, 249, 190, 1)"></use><use xlink:href="#SvgjsG8756" transform="translate(486, 108) scale(2)" fill="rgba(250, 171, 120, 1)"></use><use xlink:href="#SvgjsG8759" transform="translate(486, 162) scale(2)" fill="rgba(252, 249, 190, 1)"></use><use xlink:href="#SvgjsG8760" transform="translate(486, 216) scale(2)" fill="rgba(252, 249, 190, 1)"></use><use xlink:href="#SvgjsG8768" transform="translate(486, 270) scale(2)" fill="rgba(252, 249, 190, 1)"></use><use xlink:href="#SvgjsG8768" transform="translate(486, 324) scale(2)" fill="rgba(252, 249, 190, 1)"></use><use xlink:href="#SvgjsG8767" transform="translate(486, 378) scale(2)" fill="rgba(250, 171, 120, 1)"></use><use xlink:href="#SvgjsG8766" transform="translate(486, 432) scale(2)" fill="rgba(255, 220, 169, 1)"></use><use xlink:href="#SvgjsG8758" transform="translate(486, 486) scale(2)" fill="rgba(250, 171, 120, 1)"></use></g></defs></svg>